<svg width="55" height="53" viewBox="0 0 55 53" fill="none" xmlns="http://www.w3.org/2000/svg">
<path d="M53.4895 44.5175L44.3251 35.6864C46.7271 32.0782 48.1253 27.7919 48.1253 23.1875C48.1253 10.3814 37.3521 0 24.0626 0C10.7732 0 0 10.3814 0 23.1875C0 35.9936 10.7732 46.375 24.0626 46.375C28.8408 46.375 33.2889 45.0276 37.0333 42.713L46.1977 51.5442C48.2121 53.4853 51.476 53.4853 53.4895 51.5442C55.5031 49.603 55.5039 46.4586 53.4895 44.5175ZM24.0626 44.7188C11.7228 44.7188 1.71876 35.0785 1.71876 23.1875C1.71876 11.2965 11.7228 1.65625 24.0626 1.65625C36.4025 1.65625 46.4065 11.2965 46.4065 23.1875C46.4065 35.0785 36.4025 44.7188 24.0626 44.7188ZM52.2744 50.3732C50.932 51.6667 48.7552 51.6667 47.4137 50.3732L38.4736 41.7582C40.317 40.4282 41.9549 38.849 43.3351 37.0743L52.2744 45.6885C53.6176 46.9812 53.6176 49.0797 52.2744 50.3732Z" fill="white"/>
<path d="M24.2018 3.18018C12.6589 3.18018 3.30176 12.197 3.30176 23.3202C3.30176 34.4433 12.6589 43.4602 24.2018 43.4602C35.7447 43.4602 45.1018 34.4433 45.1018 23.3202C45.1018 12.197 35.7447 3.18018 24.2018 3.18018ZM24.2018 41.7818C13.6211 41.7818 5.04342 33.5161 5.04342 23.3202C5.04342 13.1243 13.6211 4.85851 24.2018 4.85851C34.7824 4.85851 43.3601 13.1243 43.3601 23.3202C43.3601 33.5161 34.7824 41.7818 24.2018 41.7818Z" fill="white"/>
<path d="M23.9581 9.54004C23.485 9.54004 23.1025 9.90857 23.1025 10.3645C23.1025 10.8204 23.485 11.1889 23.9581 11.1889C31.0455 11.1889 36.7914 16.7259 36.7914 23.5556C36.7914 24.0115 37.1739 24.38 37.647 24.38C38.1201 24.38 38.5025 24.0115 38.5025 23.5556C38.5025 15.8149 31.9909 9.54004 23.9581 9.54004Z" fill="white"/>
</svg>
