<svg width="228" height="220" viewBox="0 0 228 220" fill="none" xmlns="http://www.w3.org/2000/svg">
<path d="M154.605 112.407C167.917 112.036 174.574 111.851 177.144 115.599C179.715 119.347 176.498 124.545 170.063 134.943L168.399 137.633C166.57 140.587 165.656 142.064 165.492 143.68C165.328 145.295 165.933 146.866 167.144 150.007L168.246 152.866C172.506 163.921 174.636 169.448 171.342 172.835C168.047 176.223 161.511 175.227 148.438 173.237L145.055 172.722C141.34 172.156 139.483 171.873 137.694 172.266C135.906 172.658 134.388 173.681 131.353 175.728L128.59 177.592C117.91 184.794 112.57 188.395 107.964 186.741C103.357 185.088 102.535 179.274 100.889 167.645L100.464 164.638C99.9963 161.333 99.7625 159.681 98.8214 158.308C97.8796 156.935 96.3362 155.997 93.2503 154.121L90.4402 152.413C79.5803 145.81 74.15 142.509 74.5969 138.1C75.0442 133.689 81.0725 131.092 93.1287 125.896L96.2481 124.552C99.6739 123.076 101.387 122.337 102.594 121.096C103.8 119.855 104.364 118.252 105.492 115.046L106.519 112.127C110.486 100.844 112.47 95.2024 117.353 94.131C122.236 93.0596 126.784 97.2679 135.88 105.684L138.234 107.862C140.819 110.254 142.111 111.45 143.799 112.055C145.486 112.661 147.377 112.608 151.161 112.503L154.605 112.407Z" fill="#993D6A"/>
<g opacity="0.5">
<path d="M116.703 90.042C89.7251 84.2932 52.0807 88.6633 2.80198 116.022C27.6508 112.368 53.6033 119.539 73.616 132.376C78.3146 129.727 84.2989 126.961 90.6091 124.044L95.5297 121.769C96.6749 121.24 97.543 120.838 98.2861 120.484C98.5943 120.338 98.8515 120.213 99.0678 120.106C99.1669 119.906 99.2831 119.664 99.4199 119.37C99.7049 118.756 100.022 118.042 100.436 117.111L102.205 113.123C104.784 107.306 107.187 101.888 109.855 97.7491C111.375 95.3893 113.532 92.5639 116.703 90.042Z" fill="#CC2978"/>
<path d="M80.8684 130.093C81.1775 129.947 81.4938 129.799 81.8164 129.649L81.0928 130.29C81.0177 130.225 80.9434 130.159 80.8684 130.093Z" fill="#CC2978"/>
</g>
<path d="M164.152 92.8469V47.9235V3" stroke="#993D6A" stroke-width="5" stroke-linecap="round"/>
<path d="M224.999 56.9082C191.394 56.9082 164.152 32.7727 164.152 3" stroke="#993D6A" stroke-width="5" stroke-linecap="round"/>
</svg>
